<svg xmlns="http://www.w3.org/2000/svg" viewBox="0 0 220 48" width="220" height="48" role="img" aria-label="EventBridge">
  <rect width="48" height="48" rx="12" fill="#2563EB"/>
  <path d="M13.5 27c0-3.31 2.685-6 6-6h3.375v3.75H19.5a2.25 2.25 0 0 0 0 4.5h3.375V33H19.5c-3.315 0-6-2.69-6-6Z" fill="#FFFFFF"/>
  <path d="M34.5 21c0 3.31-2.685 6-6 6h-3.375v-3.75H28.5a2.25 2.25 0 0 0 0-4.5h-3.375V15H28.5c3.315 0 6 2.69 6 6Z" fill="#FFFFFF"/>
  <rect x="21" y="22.5" width="6" height="3" rx="1.5" fill="#FFFFFF"/>
  <text x="62" y="32"
        font-family="Inter, ui-sans-serif, system-ui, -apple-system, 'Segoe UI', Roboto, 'Helvetica Neue', Arial, sans-serif"
        font-size="22"
        font-weight="700"
        letter-spacing="-0.5"
        fill="#0F172A">EventBridge</text>
</svg>
